<svg width="138" height="26" viewBox="0 0 138 26" fill="none" xmlns="http://www.w3.org/2000/svg">
<path d="M124.163 17.3979L126 16.2896L127.838 17.4125L127.357 15.3125L128.975 13.9125L126.846 13.7229L126 11.7396L125.154 13.7083L123.025 13.8979L124.644 15.3125L124.163 17.3979ZM122.398 19.8333L123.346 15.7354L120.167 12.9792L124.367 12.6146L126 8.75L127.634 12.6146L131.834 12.9792L128.654 15.7354L129.602 19.8333L126 17.6604L122.398 19.8333Z" fill="#FF6A00"/>
<path d="M124.163 17.3979L126 16.2896L127.838 17.4125L127.357 15.3125L128.975 13.9125L126.846 13.7229L126 11.7396L125.154 13.7083L123.025 13.8979L124.644 15.3125L124.163 17.3979ZM122.398 19.8333L123.346 15.7354L120.167 12.9792L124.367 12.6146L126 8.75L127.634 12.6146L131.834 12.9792L128.654 15.7354L129.602 19.8333L126 17.6604L122.398 19.8333Z" fill="#576313" fill-opacity="0.2"/>
<path d="M124.163 17.3979L126 16.2896L127.838 17.4125L127.357 15.3125L128.975 13.9125L126.846 13.7229L126 11.7396L125.154 13.7083L123.025 13.8979L124.644 15.3125L124.163 17.3979ZM122.398 19.8333L123.346 15.7354L120.167 12.9792L124.367 12.6146L126 8.75L127.634 12.6146L131.834 12.9792L128.654 15.7354L129.602 19.8333L126 17.6604L122.398 19.8333Z" stroke="#FF6A00" stroke-width="5"/>
<path d="M97.1628 17.3979L99.0003 16.2896L100.838 17.4125L100.357 15.3125L101.975 13.9125L99.8462 13.7229L99.0003 11.7396L98.1545 13.7083L96.0253 13.8979L97.6441 15.3125L97.1628 17.3979ZM95.3982 19.8333L96.3462 15.7354L93.167 12.9792L97.367 12.6146L99.0003 8.75L100.634 12.6146L104.834 12.9792L101.654 15.7354L102.602 19.8333L99.0003 17.6604L95.3982 19.8333Z" fill="#FF6A00"/>
<path d="M97.1628 17.3979L99.0003 16.2896L100.838 17.4125L100.357 15.3125L101.975 13.9125L99.8462 13.7229L99.0003 11.7396L98.1545 13.7083L96.0253 13.8979L97.6441 15.3125L97.1628 17.3979ZM95.3982 19.8333L96.3462 15.7354L93.167 12.9792L97.367 12.6146L99.0003 8.75L100.634 12.6146L104.834 12.9792L101.654 15.7354L102.602 19.8333L99.0003 17.6604L95.3982 19.8333Z" fill="#576313" fill-opacity="0.2"/>
<path d="M97.1628 17.3979L99.0003 16.2896L100.838 17.4125L100.357 15.3125L101.975 13.9125L99.8462 13.7229L99.0003 11.7396L98.1545 13.7083L96.0253 13.8979L97.6441 15.3125L97.1628 17.3979ZM95.3982 19.8333L96.3462 15.7354L93.167 12.9792L97.367 12.6146L99.0003 8.75L100.634 12.6146L104.834 12.9792L101.654 15.7354L102.602 19.8333L99.0003 17.6604L95.3982 19.8333Z" stroke="#FF6A00" stroke-width="5"/>
<path d="M71.1628 17.3979L73.0003 16.2896L74.8378 17.4125L74.3566 15.3125L75.9753 13.9125L73.8462 13.7229L73.0003 11.7396L72.1545 13.7083L70.0253 13.8979L71.6441 15.3125L71.1628 17.3979ZM69.3982 19.8333L70.3462 15.7354L67.167 12.9792L71.367 12.6146L73.0003 8.75L74.6337 12.6146L78.8337 12.9792L75.6545 15.7354L76.6024 19.8333L73.0003 17.6604L69.3982 19.8333Z" fill="#FF6A00"/>
<path d="M71.1628 17.3979L73.0003 16.2896L74.8378 17.4125L74.3566 15.3125L75.9753 13.9125L73.8462 13.7229L73.0003 11.7396L72.1545 13.7083L70.0253 13.8979L71.6441 15.3125L71.1628 17.3979ZM69.3982 19.8333L70.3462 15.7354L67.167 12.9792L71.367 12.6146L73.0003 8.75L74.6337 12.6146L78.8337 12.9792L75.6545 15.7354L76.6024 19.8333L73.0003 17.6604L69.3982 19.8333Z" fill="#576313" fill-opacity="0.2"/>
<path d="M71.1628 17.3979L73.0003 16.2896L74.8378 17.4125L74.3566 15.3125L75.9753 13.9125L73.8462 13.7229L73.0003 11.7396L72.1545 13.7083L70.0253 13.8979L71.6441 15.3125L71.1628 17.3979ZM69.3982 19.8333L70.3462 15.7354L67.167 12.9792L71.367 12.6146L73.0003 8.75L74.6337 12.6146L78.8337 12.9792L75.6545 15.7354L76.6024 19.8333L73.0003 17.6604L69.3982 19.8333Z" stroke="#FF6A00" stroke-width="5"/>
<path d="M44.1628 17.3979L46.0003 16.2896L47.8378 17.4125L47.3566 15.3125L48.9753 13.9125L46.8462 13.7229L46.0003 11.7396L45.1545 13.7083L43.0253 13.8979L44.6441 15.3125L44.1628 17.3979ZM42.3982 19.8333L43.3462 15.7354L40.167 12.9792L44.367 12.6146L46.0003 8.75L47.6337 12.6146L51.8337 12.9792L48.6545 15.7354L49.6024 19.8333L46.0003 17.6604L42.3982 19.8333Z" fill="#FF6A00"/>
<path d="M44.1628 17.3979L46.0003 16.2896L47.8378 17.4125L47.3566 15.3125L48.9753 13.9125L46.8462 13.7229L46.0003 11.7396L45.1545 13.7083L43.0253 13.8979L44.6441 15.3125L44.1628 17.3979ZM42.3982 19.8333L43.3462 15.7354L40.167 12.9792L44.367 12.6146L46.0003 8.75L47.6337 12.6146L51.8337 12.9792L48.6545 15.7354L49.6024 19.8333L46.0003 17.6604L42.3982 19.8333Z" fill="#576313" fill-opacity="0.2"/>
<path d="M44.1628 17.3979L46.0003 16.2896L47.8378 17.4125L47.3566 15.3125L48.9753 13.9125L46.8462 13.7229L46.0003 11.7396L45.1545 13.7083L43.0253 13.8979L44.6441 15.3125L44.1628 17.3979ZM42.3982 19.8333L43.3462 15.7354L40.167 12.9792L44.367 12.6146L46.0003 8.75L47.6337 12.6146L51.8337 12.9792L48.6545 15.7354L49.6024 19.8333L46.0003 17.6604L42.3982 19.8333Z" stroke="#FF6A00" stroke-width="5"/>
<path d="M17.1628 17.3979L19.0003 16.2896L20.8378 17.4125L20.3566 15.3125L21.9753 13.9125L19.8462 13.7229L19.0003 11.7396L18.1545 13.7083L16.0253 13.8979L17.6441 15.3125L17.1628 17.3979ZM15.3982 19.8333L16.3462 15.7354L13.167 12.9792L17.367 12.6146L19.0003 8.75L20.6337 12.6146L24.8337 12.9792L21.6545 15.7354L22.6024 19.8333L19.0003 17.6604L15.3982 19.8333Z" fill="#FF6A00"/>
<path d="M17.1628 17.3979L19.0003 16.2896L20.8378 17.4125L20.3566 15.3125L21.9753 13.9125L19.8462 13.7229L19.0003 11.7396L18.1545 13.7083L16.0253 13.8979L17.6441 15.3125L17.1628 17.3979ZM15.3982 19.8333L16.3462 15.7354L13.167 12.9792L17.367 12.6146L19.0003 8.75L20.6337 12.6146L24.8337 12.9792L21.6545 15.7354L22.6024 19.8333L19.0003 17.6604L15.3982 19.8333Z" fill="#576313" fill-opacity="0.2"/>
<path d="M17.1628 17.3979L19.0003 16.2896L20.8378 17.4125L20.3566 15.3125L21.9753 13.9125L19.8462 13.7229L19.0003 11.7396L18.1545 13.7083L16.0253 13.8979L17.6441 15.3125L17.1628 17.3979ZM15.3982 19.8333L16.3462 15.7354L13.167 12.9792L17.367 12.6146L19.0003 8.75L20.6337 12.6146L24.8337 12.9792L21.6545 15.7354L22.6024 19.8333L19.0003 17.6604L15.3982 19.8333Z" stroke="#FF6A00" stroke-width="5"/>
</svg>
