<svg width="138" height="26" viewBox="0 0 138 26" fill="none" xmlns="http://www.w3.org/2000/svg">
<path d="M124.162 17.3979L126 16.2896L127.837 17.4125L127.356 15.3125L128.975 13.9125L126.846 13.7229L126 11.7396L125.154 13.7083L123.025 13.8979L124.644 15.3125L124.162 17.3979ZM122.398 19.8333L123.346 15.7354L120.167 12.9792L124.367 12.6146L126 8.75L127.633 12.6146L131.833 12.9792L128.654 15.7354L129.602 19.8333L126 17.6604L122.398 19.8333Z" fill="#FFCC00"/>
<path d="M124.162 17.3979L126 16.2896L127.837 17.4125L127.356 15.3125L128.975 13.9125L126.846 13.7229L126 11.7396L125.154 13.7083L123.025 13.8979L124.644 15.3125L124.162 17.3979ZM122.398 19.8333L123.346 15.7354L120.167 12.9792L124.367 12.6146L126 8.75L127.633 12.6146L131.833 12.9792L128.654 15.7354L129.602 19.8333L126 17.6604L122.398 19.8333Z" fill="#576313" fill-opacity="0.2"/>
<path d="M124.162 17.3979L126 16.2896L127.837 17.4125L127.356 15.3125L128.975 13.9125L126.846 13.7229L126 11.7396L125.154 13.7083L123.025 13.8979L124.644 15.3125L124.162 17.3979ZM122.398 19.8333L123.346 15.7354L120.167 12.9792L124.367 12.6146L126 8.75L127.633 12.6146L131.833 12.9792L128.654 15.7354L129.602 19.8333L126 17.6604L122.398 19.8333Z" stroke="#FFCC00" stroke-width="5"/>
<path d="M97.1625 17.3979L99 16.2896L100.837 17.4125L100.356 15.3125L101.975 13.9125L99.8458 13.7229L99 11.7396L98.1542 13.7083L96.025 13.8979L97.6437 15.3125L97.1625 17.3979ZM95.3979 19.8333L96.3458 15.7354L93.1667 12.9792L97.3667 12.6146L99 8.75L100.633 12.6146L104.833 12.9792L101.654 15.7354L102.602 19.8333L99 17.6604L95.3979 19.8333Z" fill="#FFCC00"/>
<path d="M97.1625 17.3979L99 16.2896L100.837 17.4125L100.356 15.3125L101.975 13.9125L99.8458 13.7229L99 11.7396L98.1542 13.7083L96.025 13.8979L97.6437 15.3125L97.1625 17.3979ZM95.3979 19.8333L96.3458 15.7354L93.1667 12.9792L97.3667 12.6146L99 8.75L100.633 12.6146L104.833 12.9792L101.654 15.7354L102.602 19.8333L99 17.6604L95.3979 19.8333Z" fill="#576313" fill-opacity="0.2"/>
<path d="M97.1625 17.3979L99 16.2896L100.837 17.4125L100.356 15.3125L101.975 13.9125L99.8458 13.7229L99 11.7396L98.1542 13.7083L96.025 13.8979L97.6437 15.3125L97.1625 17.3979ZM95.3979 19.8333L96.3458 15.7354L93.1667 12.9792L97.3667 12.6146L99 8.75L100.633 12.6146L104.833 12.9792L101.654 15.7354L102.602 19.8333L99 17.6604L95.3979 19.8333Z" stroke="#FFCC00" stroke-width="5"/>
<path d="M71.1625 17.3979L73 16.2896L74.8375 17.4125L74.3562 15.3125L75.975 13.9125L73.8458 13.7229L73 11.7396L72.1542 13.7083L70.025 13.8979L71.6437 15.3125L71.1625 17.3979ZM69.3979 19.8333L70.3458 15.7354L67.1667 12.9792L71.3667 12.6146L73 8.75L74.6333 12.6146L78.8333 12.9792L75.6542 15.7354L76.6021 19.8333L73 17.6604L69.3979 19.8333Z" fill="#FFCC00"/>
<path d="M71.1625 17.3979L73 16.2896L74.8375 17.4125L74.3562 15.3125L75.975 13.9125L73.8458 13.7229L73 11.7396L72.1542 13.7083L70.025 13.8979L71.6437 15.3125L71.1625 17.3979ZM69.3979 19.8333L70.3458 15.7354L67.1667 12.9792L71.3667 12.6146L73 8.75L74.6333 12.6146L78.8333 12.9792L75.6542 15.7354L76.6021 19.8333L73 17.6604L69.3979 19.8333Z" fill="#576313" fill-opacity="0.2"/>
<path d="M71.1625 17.3979L73 16.2896L74.8375 17.4125L74.3562 15.3125L75.975 13.9125L73.8458 13.7229L73 11.7396L72.1542 13.7083L70.025 13.8979L71.6437 15.3125L71.1625 17.3979ZM69.3979 19.8333L70.3458 15.7354L67.1667 12.9792L71.3667 12.6146L73 8.75L74.6333 12.6146L78.8333 12.9792L75.6542 15.7354L76.6021 19.8333L73 17.6604L69.3979 19.8333Z" stroke="#FFCC00" stroke-width="5"/>
<path d="M44.1625 17.3979L46 16.2896L47.8375 17.4125L47.3562 15.3125L48.975 13.9125L46.8458 13.7229L46 11.7396L45.1542 13.7083L43.025 13.8979L44.6437 15.3125L44.1625 17.3979ZM42.3979 19.8333L43.3458 15.7354L40.1667 12.9792L44.3667 12.6146L46 8.75L47.6333 12.6146L51.8333 12.9792L48.6542 15.7354L49.6021 19.8333L46 17.6604L42.3979 19.8333Z" fill="#FFCC00"/>
<path d="M44.1625 17.3979L46 16.2896L47.8375 17.4125L47.3562 15.3125L48.975 13.9125L46.8458 13.7229L46 11.7396L45.1542 13.7083L43.025 13.8979L44.6437 15.3125L44.1625 17.3979ZM42.3979 19.8333L43.3458 15.7354L40.1667 12.9792L44.3667 12.6146L46 8.75L47.6333 12.6146L51.8333 12.9792L48.6542 15.7354L49.6021 19.8333L46 17.6604L42.3979 19.8333Z" fill="#576313" fill-opacity="0.2"/>
<path d="M44.1625 17.3979L46 16.2896L47.8375 17.4125L47.3562 15.3125L48.975 13.9125L46.8458 13.7229L46 11.7396L45.1542 13.7083L43.025 13.8979L44.6437 15.3125L44.1625 17.3979ZM42.3979 19.8333L43.3458 15.7354L40.1667 12.9792L44.3667 12.6146L46 8.75L47.6333 12.6146L51.8333 12.9792L48.6542 15.7354L49.6021 19.8333L46 17.6604L42.3979 19.8333Z" stroke="#FFCC00" stroke-width="5"/>
<path d="M17.1625 17.3979L19 16.2896L20.8375 17.4125L20.3563 15.3125L21.975 13.9125L19.8458 13.7229L19 11.7396L18.1542 13.7083L16.025 13.8979L17.6438 15.3125L17.1625 17.3979ZM15.3979 19.8333L16.3458 15.7354L13.1667 12.9792L17.3667 12.6146L19 8.75L20.6333 12.6146L24.8333 12.9792L21.6542 15.7354L22.6021 19.8333L19 17.6604L15.3979 19.8333Z" fill="#FFCC00"/>
<path d="M17.1625 17.3979L19 16.2896L20.8375 17.4125L20.3563 15.3125L21.975 13.9125L19.8458 13.7229L19 11.7396L18.1542 13.7083L16.025 13.8979L17.6438 15.3125L17.1625 17.3979ZM15.3979 19.8333L16.3458 15.7354L13.1667 12.9792L17.3667 12.6146L19 8.75L20.6333 12.6146L24.8333 12.9792L21.6542 15.7354L22.6021 19.8333L19 17.6604L15.3979 19.8333Z" fill="#576313" fill-opacity="0.2"/>
<path d="M17.1625 17.3979L19 16.2896L20.8375 17.4125L20.3563 15.3125L21.975 13.9125L19.8458 13.7229L19 11.7396L18.1542 13.7083L16.025 13.8979L17.6438 15.3125L17.1625 17.3979ZM15.3979 19.8333L16.3458 15.7354L13.1667 12.9792L17.3667 12.6146L19 8.75L20.6333 12.6146L24.8333 12.9792L21.6542 15.7354L22.6021 19.8333L19 17.6604L15.3979 19.8333Z" stroke="#FFCC00" stroke-width="5"/>
</svg>
