<svg width="22" height="22" viewBox="0 0 22 22" fill="none" xmlns="http://www.w3.org/2000/svg">
<path d="M22 12.4783V21.7168H20.625V20.177H1.375V21.7168H0V12.4783H1.375V13.8376L4.125 7.6787V0.160461H5.5V1.7002H16.5V0.160461H17.875V4.77967C18.0684 4.77967 18.2474 4.81977 18.4121 4.89996C18.5768 4.98016 18.7201 5.08842 18.8418 5.22475C18.9635 5.36108 19.0638 5.52548 19.1426 5.71795C19.2214 5.91041 19.2572 6.1109 19.25 6.31941V9.39888C19.25 9.71164 19.1748 9.99232 19.0244 10.2409L20.625 13.8376V12.4783H22ZM12.375 6.31941V9.39888H17.875V6.31941H12.375ZM5.5 3.23993V7.85914H11V6.31941C11 6.10288 11.0358 5.90239 11.1074 5.71795C11.179 5.5335 11.2757 5.37311 11.3975 5.23678C11.5192 5.10045 11.666 4.98818 11.8379 4.89996C12.0098 4.81175 12.1888 4.77165 12.375 4.77967H16.5V3.23993H5.5ZM2.83594 14.0181H19.1641L17.7891 10.9386H12.375C12.1816 10.9386 12.0026 10.8985 11.8379 10.8183C11.6732 10.7381 11.5299 10.6299 11.4082 10.4935C11.2865 10.3572 11.1862 10.1928 11.1074 10.0003C11.0286 9.80787 10.9928 9.60738 11 9.39888H4.8877L2.83594 14.0181ZM20.625 18.6373V15.5578H1.375V18.6373H20.625Z" fill="#221D1D"/>
</svg>
