<svg width="42" height="42" viewBox="0 0 42 42" fill="none" xmlns="http://www.w3.org/2000/svg">
<path d="M28.656 6.73723C30.6848 6.74328 32.6288 7.55193 34.0635 8.98654C35.4981 10.4212 36.3067 12.3652 36.3128 14.394V29.706C36.3067 31.7348 35.4981 33.6788 34.0635 35.1135C32.6288 36.5481 30.6848 37.3567 28.656 37.3628H13.344C11.3152 37.3567 9.37116 36.5481 7.93654 35.1135C6.50193 33.6788 5.69329 31.7348 5.68723 29.706V14.394C5.69329 12.3652 6.50193 10.4212 7.93654 8.98654C9.37116 7.55193 11.3152 6.74328 13.344 6.73723H28.656ZM28.656 3.675H13.344C7.44844 3.675 2.625 8.49844 2.625 14.394V29.706C2.625 35.6016 7.44844 40.425 13.344 40.425H28.656C34.5516 40.425 39.375 35.6016 39.375 29.706V14.394C39.375 8.49844 34.5516 3.675 28.656 3.675Z" fill="white"/>
<path d="M30.9529 13.344C30.4986 13.344 30.0545 13.2093 29.6768 12.9569C29.2991 12.7045 29.0047 12.3458 28.8308 11.9261C28.657 11.5064 28.6115 11.0446 28.7001 10.5991C28.7887 10.1535 29.0075 9.74424 29.3287 9.42301C29.6499 9.10179 30.0592 8.88303 30.5048 8.79441C30.9503 8.70578 31.4121 8.75127 31.8318 8.92511C32.2515 9.09896 32.6103 9.39336 32.8626 9.77108C33.115 10.1488 33.2497 10.5929 33.2497 11.0472C33.2504 11.349 33.1914 11.6479 33.0762 11.9269C32.961 12.2059 32.7919 12.4593 32.5784 12.6727C32.365 12.8861 32.1116 13.0553 31.8326 13.1705C31.5536 13.2857 31.2547 13.3447 30.9529 13.344ZM21 14.8747C22.2115 14.8747 23.3957 15.234 24.403 15.907C25.4103 16.5801 26.1954 17.5367 26.659 18.656C27.1226 19.7752 27.2439 21.0068 27.0076 22.195C26.7712 23.3832 26.1879 24.4746 25.3312 25.3312C24.4746 26.1879 23.3832 26.7712 22.195 27.0076C21.0068 27.2439 19.7752 27.1226 18.656 26.659C17.5367 26.1954 16.5801 25.4103 15.907 24.403C15.234 23.3957 14.8747 22.2115 14.8747 21C14.8765 19.376 15.5224 17.819 16.6707 16.6707C17.819 15.5224 19.376 14.8765 21 14.8747ZM21 11.8125C19.1829 11.8125 17.4066 12.3513 15.8957 13.3609C14.3848 14.3704 13.2072 15.8053 12.5119 17.4841C11.8165 19.1629 11.6345 21.0102 11.989 22.7924C12.3435 24.5746 13.2186 26.2116 14.5035 27.4965C15.7884 28.7814 17.4254 29.6565 19.2076 30.011C20.9898 30.3655 22.8371 30.1835 24.5159 29.4881C26.1947 28.7928 27.6296 27.6152 28.6391 26.1043C29.6487 24.5934 30.1875 22.8171 30.1875 21C30.1875 18.5633 29.2195 16.2264 27.4965 14.5035C25.7736 12.7805 23.4367 11.8125 21 11.8125Z" fill="white"/>
</svg>
