<svg width="18" height="19" viewBox="0 0 18 19" fill="none" xmlns="http://www.w3.org/2000/svg">
<path d="M12.3161 1.48496C11.4741 0.6004 10.298 0.113281 9 0.113281C7.69504 0.113281 6.51512 0.597453 5.67701 1.47654C4.82983 2.36531 4.41705 3.57322 4.51397 4.87753C4.70608 7.4508 6.71848 9.54411 9 9.54411C11.2815 9.54411 13.2905 7.45122 13.4856 4.87838C13.5838 3.58585 13.1684 2.38047 12.3161 1.48496ZM16.6152 18.9749H1.38482C1.18547 18.9775 0.988051 18.9367 0.806921 18.8557C0.625791 18.7746 0.46551 18.6553 0.337738 18.5063C0.0564959 18.1792 -0.0568664 17.7325 0.0270736 17.2808C0.392256 15.3095 1.53194 13.6537 3.32323 12.4912C4.91463 11.4593 6.93049 10.8914 9 10.8914C11.0695 10.8914 13.0854 11.4597 14.6768 12.4912C16.4681 13.6533 17.6077 15.3091 17.9729 17.2803C18.0569 17.7321 17.9435 18.1788 17.6623 18.5059C17.5345 18.6549 17.3743 18.7743 17.1931 18.8555C17.012 18.9366 16.8146 18.9774 16.6152 18.9749Z" fill="black"/>
</svg>
