<svg width="139" height="139" viewBox="0 0 139 139" fill="none" xmlns="http://www.w3.org/2000/svg">
<path d="M17.375 17.375H34.75V34.75H17.375V17.375Z" fill="#FFF8F8"/>
<path d="M52.125 0V52.125H0V0H52.125ZM43.4375 8.6875H8.6875V43.4375H43.4375V8.6875ZM34.75 104.25H17.375V121.625H34.75V104.25Z" fill="#FFF8F8"/>
<path d="M52.125 86.875V139H0V86.875H52.125ZM8.6875 95.5625V130.312H43.4375V95.5625H8.6875ZM104.25 17.375H121.625V34.75H104.25V17.375Z" fill="#FFF8F8"/>
<path d="M86.875 0V52.125H139V0H86.875ZM130.312 8.6875V43.4375H95.5625V8.6875H130.312ZM69.5 8.6875V0H78.1875V17.375H69.5V34.75H60.8125V8.6875H69.5ZM69.5 52.125V34.75H78.1875V52.125H69.5ZM52.125 69.5V60.8125H60.8125V52.125H69.5V69.5H78.1875V60.8125H121.625V69.5H86.875V78.1875H60.8125V69.5H52.125ZM52.125 69.5V78.1875H17.375V69.5H8.6875V78.1875H0V60.8125H26.0625V69.5H52.125ZM139 78.1875H130.312V60.8125H139V78.1875ZM130.312 78.1875H121.625V95.5625H139V86.875H130.312V78.1875ZM95.5625 78.1875H112.938V86.875H104.25V95.5625H95.5625V78.1875ZM112.938 104.25V95.5625H104.25V104.25H95.5625V112.938H78.1875V121.625H104.25V104.25H112.938ZM112.938 104.25H139V112.938H121.625V121.625H112.938V104.25ZM78.1875 95.5625V104.25H86.875V86.875H60.8125V95.5625H78.1875Z" fill="#FFF8F8"/>
<path d="M60.8125 104.25H69.5V130.312H104.25V139H60.8125V104.25ZM139 121.625V139H112.938V130.312H130.312V121.625H139Z" fill="#FFF8F8"/>
</svg>
