<svg width="90" height="88" viewBox="0 0 90 88" fill="none" xmlns="http://www.w3.org/2000/svg">
<rect x="0.759277" width="88.6617" height="88" rx="44" fill="#1B2549"/>
<path d="M59.3344 37.8159V29.432C59.3343 26.3561 58.3431 23.3663 56.5145 20.9261C54.6859 18.4859 52.1221 16.7317 49.2208 15.9356C46.3194 15.1395 43.2426 15.346 40.4675 16.523C37.6924 17.7 35.3741 19.7817 33.8722 22.4454M42.96 54.5836C42.96 56.127 44.1818 57.3782 45.6891 57.3782C47.1963 57.3782 48.4181 56.127 48.4181 54.5836C48.4181 53.0402 47.1963 51.789 45.6891 51.789C44.1818 51.789 42.96 53.0402 42.96 54.5836ZM64.7926 37.8159H26.5855C23.5711 37.8159 21.1274 40.3183 21.1274 43.4051V65.7621C21.1274 68.849 23.5711 71.3514 26.5855 71.3514H64.7926C67.807 71.3514 70.2507 68.849 70.2507 65.7621V43.4051C70.2507 40.3183 67.807 37.8159 64.7926 37.8159Z" stroke="white" stroke-width="2" stroke-linecap="round" stroke-linejoin="round"/>
</svg>
