<svg width="40" height="40" viewBox="0 0 40 40" fill="none" xmlns="http://www.w3.org/2000/svg">
<path d="M39.743 8.83205C39.743 4.14468 37.1567 0.373948 33.961 0.373948C29.6323 0.104163 25.2177 0 20.7062 0H19.2998C14.7992 0 10.3768 0.104164 6.04811 0.37499C2.86021 0.37499 0.273947 4.16655 0.273947 8.85393C0.07861 12.5611 -0.00421295 16.2693 0.000475144 19.9776C-0.00733834 23.6858 0.0812145 27.3975 0.266134 31.1127C0.266134 35.8001 2.8524 39.602 6.0403 39.602C10.5877 39.8833 15.2524 40.0083 19.9952 39.9979C24.7458 40.0187 29.3974 39.8868 33.9501 39.602C37.1458 39.602 39.732 35.8001 39.732 31.1127C39.9196 27.394 40.0055 23.6858 39.9977 19.9672C40.0154 16.2589 39.9305 12.5472 39.743 8.83205ZM16.1744 30.1961V9.72786L27.5039 19.9567L16.1744 30.1961Z" fill="white"/>
</svg>
